<?xml version="1.0" encoding="UTF-8" standalone="no"?>
<svg
   xmlns:dc="http://purl.org/dc/elements/1.1/"
   xmlns:cc="http://creativecommons.org/ns#"
   xmlns:rdf="http://www.w3.org/1999/02/22-rdf-syntax-ns#"
   xmlns:svg="http://www.w3.org/2000/svg"
   xmlns="http://www.w3.org/2000/svg"
   version="1.1"
   id="svg2"
   width="1040"
   height="1220"
   viewBox="0 0 1040 1220">
  <metadata
     id="metadata8">
    <rdf:RDF>
      <cc:Work
         rdf:about="">
        <dc:format>image/svg+xml</dc:format>
        <dc:type
           rdf:resource="http://purl.org/dc/dcmitype/StillImage" />
        <dc:title></dc:title>
      </cc:Work>
    </rdf:RDF>
  </metadata>
  <defs
     id="defs6" />
  <path
     style="opacity:0.15;fill:#a9a9a9;fill-opacity:1;stroke:#ffffff;stroke-width:2;stroke-miterlimit:4;stroke-dasharray:none;stroke-opacity:1"
     d="m 271.41407,1206.2583 c -21.91673,-7.8734 -39.36538,-20.8552 -41.97214,-31.2271 -2.36028,-9.3913 39.19757,-154.044 47.71962,-166.1005 3.09364,-4.3767 18.79462,-15.54574 34.8911,-24.82018 l 29.26632,-16.86259 4.29584,-21.03108 c 2.36272,-11.56713 5.44989,-22.12355 6.86043,-23.45872 1.41053,-1.3352 13.29777,3.8962 26.41606,11.62533 13.11837,7.72914 32.03985,16.62495 42.04775,19.76853 10.00791,3.14355 18.19617,7.18486 18.19617,8.98057 0,1.79574 -7.04915,12.22743 -15.66482,23.18155 l -15.66482,19.91659 v 31.6756 c 0,29.9496 -0.61084,32.7526 -11.20861,51.4359 -18.32205,32.301 -62.93172,97.8731 -75.61742,111.1509 -13.78267,14.4258 -22.60178,15.4517 -49.56548,5.7652 z M 531.47534,999.24148 c 0,-4.66816 28.47332,-29.19457 49.46791,-42.61078 9.976,-6.37496 27.04244,-19.05671 37.92539,-28.18166 31.51758,-26.42631 34.73941,-27.68898 9.89356,-3.87743 -19.12589,18.32978 -44.13202,38.43799 -91.4858,73.56666 -3.19062,2.36683 -5.80106,2.86333 -5.80106,1.10321 z m -1.64895,-38.86146 C 498.77715,957.88358 465.35071,951.31118 440.10705,942.7392 407.0962,931.5297 326.69555,890.41191 287.92502,864.91165 241.76565,834.55159 168.57168,757.08009 160.27569,729.80236 c -1.04395,-3.43256 1.43977,-1.7737 5.77502,3.85716 14.7145,19.1119 37.71007,38.9745 80.52312,69.55247 117.58332,83.98026 202.54964,127.79997 301.39079,155.43618 12.35677,3.455 8.21341,3.8506 -18.13823,1.73185 z M 510.212,891.52346 C 456.99379,864.57585 288.76774,774.93182 208.446,730.71891 161.62588,704.94685 134.41201,669.44327 117.92328,612.62186 109.3935,583.22751 102.44397,530.3829 103.15269,500.30551 c 0.30798,-13.07055 1.49608,-8.66414 5.20009,19.28574 5.65722,42.68871 16.81733,78.24542 32.8112,104.53825 13.26384,21.80475 57.74637,66.81675 81.9614,82.93687 58.58128,38.99801 372.28268,205.10842 381.53386,202.02888 2.0828,-0.69335 -12.41844,-11.4644 -32.22507,-23.93566 -19.80662,-12.4713 -36.66272,-23.16423 -37.45795,-23.7621 -1.29892,-0.97658 -6.06847,-59.03535 -6.59016,-80.22145 l -0.20851,-8.47066 -24.55206,12.3223 c -13.50365,6.77723 -35.75579,14.81139 -49.44923,17.85374 -40.58511,9.01701 -49.92088,5.03605 -183.2318,-78.13452 -19.04515,-11.88198 -45.41882,-27.7891 -58.60815,-35.34911 -44.69476,-25.61878 -67.96299,-66.31083 -83.51133,-146.04649 -3.45634,-17.72485 -6.33987,-39.21404 -6.40786,-47.75368 L 122.29344,480.07093 78.973702,459.3927 C 47.828858,444.52602 34.961655,439.83312 33.190601,442.69481 c -4.172174,6.74151 -7.788899,64.51083 -7.288406,116.41672 0.743404,77.0991 14.551497,149.88682 42.119769,222.02936 15.315631,40.07902 14.889887,45.2812 -2.178492,26.61919 C 42.004291,781.69509 23.348217,731.55547 13.589337,667.32313 9.6844901,641.6216 10.393512,418.054 14.392524,414.06797 c 1.281567,-1.27738 9.006967,3.54662 17.167536,10.72007 25.22776,22.17601 56.123908,36.54378 158.58681,73.74824 56.64056,20.56626 62.5048,24.24915 18.07002,11.34834 -15.26872,-4.433 -28.2032,-7.61872 -28.74335,-7.0793 -0.54011,0.53941 0.46775,11.20419 2.23971,23.69954 2.11879,14.9407 7.70637,31.74045 16.32056,49.06956 38.17687,76.80032 145.86004,146.63801 213.80563,138.66322 23.19694,-2.72262 48.60576,-12.63143 63.93391,-24.93262 6.84373,-5.49228 14.38518,-9.97344 16.75879,-9.95817 2.37366,0.0163 16.93005,9.06251 32.34755,20.10518 15.41747,11.04265 38.58329,25.87036 51.47959,32.95048 l 23.44776,12.87303 v 35.48833 c 0,46.81106 6.62315,63.57745 29.0234,73.47265 l 15.16572,6.69933 12.17023,-9.14421 c 6.69361,-5.02929 21.4937,-18.01599 32.88903,-28.85935 l 20.71882,-19.71522 7.24065,7.23082 c 6.64872,6.6396 6.84218,7.88547 2.36623,15.239 -2.68096,4.40453 -15.97734,20.32751 -29.54752,35.38436 l -24.67313,27.37613 31.26874,-27.57883 31.26878,-27.57883 -36.27648,34.85641 c -32.70185,31.42172 -45.79234,41.87519 -39.29819,31.38184 1.27284,-2.05673 -1.97864,-0.6162 -7.22558,3.20127 -11.295,8.21776 -48.21778,20.19564 -62.4404,20.2559 -6.20071,0.0266 -33.77576,-11.98222 -72.24538,-31.46168 z m 230.07946,-77.50921 c -14.15068,-4.08935 -32.35303,-26.11648 -37.2597,-45.08898 -2.20551,-8.5281 -4.5313,-17.28223 -5.1684,-19.45359 -0.81026,-2.76156 -9.2902,-0.98431 -28.2171,5.91373 -19.39827,7.06984 -29.91967,9.2342 -37.16437,7.64521 -6.94042,-1.5223 -20.46786,-12.8451 -43.18913,-36.15033 -37.59727,-38.56352 -60.43247,-58.25143 -64.58855,-55.68635 -3.50286,2.16197 -99.3331,-17.47626 -102.96135,-21.09958 -4.48642,-4.48025 0.9595,-12.81318 11.121,-17.01644 11.90605,-4.92492 34.48401,-2.27937 53.95584,6.32221 16.81106,7.4261 79.87554,52.62437 112.26177,80.45772 37.55415,32.27484 59.49056,38.0911 88.04593,23.3447 5.41965,-2.79875 10.24795,-4.60891 10.72956,-4.0225 0.48156,0.5864 4.04643,11.64622 7.92186,24.57732 7.99756,26.68562 20.88104,42.97203 36.45362,46.08229 5.60972,1.1204 10.19952,3.33387 10.19952,4.91879 0,1.58492 -0.371,2.74805 -0.82446,2.58471 -0.45347,-0.16329 -5.54566,-1.66141 -11.31604,-3.32891 z M 704.87007,682.61247 c 3.44663,-48.61477 18.41939,-199.53668 21.30127,-214.71196 3.82153,-20.12332 12.37149,-32.52155 31.48228,-45.65223 15.62841,-10.73791 47.04617,-22.86461 59.23759,-22.86461 4.04962,0 10.86643,2.91473 15.14854,6.47712 l 7.78549,6.47717 -16.97885,0.10953 c -12.24415,0.079 -22.10084,2.80022 -35.34636,9.75826 -19.83452,10.41932 -48.47952,31.14596 -52.22281,37.78678 -3.63404,6.44711 -14.88707,89.97412 -20.89633,155.10608 -5.6824,61.58919 -12.54412,110.29771 -9.51082,67.51384 z m -339.98966,-76.0605 c -2.07051,-12.23849 -1.28322,-14.51549 8.50607,-24.60168 5.93328,-6.11322 17.21229,-13.75286 25.06445,-16.97685 7.85219,-3.22405 14.28227,-6.76035 14.28908,-7.85843 0.006,-1.09807 -12.00122,-2.99703 -26.68449,-4.21987 -25.15475,-2.09498 -116.92793,-23.51149 -134.89834,-31.48036 l -8.24464,-3.65605 8.24464,1.79363 c 45.90849,9.98716 126.26472,25.24299 150.05267,28.48793 16.3244,2.22677 31.64177,5.99926 34.03864,8.38332 3.61195,3.59264 3.61195,4.33507 0,4.33719 -2.39687,10e-4 -13.32595,4.23943 -24.28686,9.41781 -23.28147,10.99909 -37.7836,26.44121 -37.7836,40.23268 0,14.29389 -5.67286,11.65537 -8.29762,-3.85932 z m 481.54057,-41.9259 c -15.72756,-7.41102 -61.05623,-40.48691 -90.09452,-65.74115 -19.14604,-16.65109 -20.40794,-18.55323 -15.52939,-23.40892 8.89619,-8.85447 50.82631,-6.52802 80.88997,4.48809 29.24932,10.71774 70.21564,31.45774 84.03457,42.54421 8.67439,6.95914 9.45139,8.95756 6.59568,16.96387 -1.78035,4.99151 -8.62693,13.42242 -15.21461,18.73538 -15.43086,12.44485 -33.13459,14.68686 -50.6817,6.41852 z m 163.83122,-157.899 c -29.3709,-13.37781 -69.21294,-18.75854 -106.11869,-14.33142 -38.81566,4.65617 -56.26791,4.70621 -68.14876,0.19536 -11.50971,-4.36997 -14.18343,-8.50322 -14.24724,-22.02415 -0.0664,-14.0327 8.59254,-22.27276 30.10983,-28.65398 50.73624,-15.04651 100.73092,-15.41106 125.50012,-0.91514 25.21384,14.75613 54.13384,52.93353 51.47654,67.95431 -0.9349,5.28442 -2.4957,5.09747 -18.5718,-2.2249 z m -553.31248,-69.656 C 370.60189,299.10656 325.66407,272.21553 277.54007,229.7174 230.3203,188.01776 184.65593,168.8486 132.53966,168.8486 c -27.96136,0 -60.545369,8.48163 -89.756268,23.36357 -8.584205,4.37339 -12.803107,5.28987 -11.900318,2.58523 2.393117,-7.16953 36.400426,-28.58127 54.368636,-34.23166 16.69595,-5.25037 56.67793,-7.01524 75.81557,-3.34669 5.94898,1.14038 2.76622,-1.43314 -8.84586,-7.15267 -21.54944,-10.61413 -55.12509,-13.82061 -77.935349,-7.44287 -8.217268,2.29758 -24.095174,9.91756 -35.284243,16.93333 L 18.658047,172.31279 31.746042,160.5525 C 72.35509,124.06309 127.02932,116.1013 165.89199,141.01788 l 12.02172,7.70762 -11.14472,-16.5383 c -6.12957,-9.09608 -13.39436,-24.10354 -16.14401,-33.349877 -5.18489,-17.435559 -6.85807,-56.893743 -2.52591,-59.567512 1.36037,-0.839609 2.47341,7.594491 2.47341,18.742445 0,27.184641 11.76643,50.661804 41.12551,82.056294 33.93843,36.29137 42.07703,40.81561 77.59745,43.13665 74.53799,4.8706 140.40104,34.89543 189.82929,86.53696 22.97067,23.99931 37.25095,43.36217 48.93897,66.35729 13.31108,26.18817 6.51647,26.3173 -51.12398,0.97162 z m 140.4928,6.9755 c 0,-22.31154 -6.64921,-62.9156 -16.55542,-101.09742 C 563.50387,175.98717 541.79403,134.38384 512.72742,112.35172 489.64462,94.855264 441.57034,71.767184 397.11971,56.830147 c -25.68245,-8.630222 -35.3046,-13.04855 -28.48686,-13.080661 19.35116,-0.09114 74.94456,16.320921 105.397,31.114948 95.94868,46.612546 146.28326,128.802126 146.88576,239.844456 0.10692,19.67941 -0.41834,36.39244 -1.16688,37.13998 -0.74859,0.74754 -6.07594,2.30085 -11.83864,3.45181 -10.39263,2.07571 -10.47757,1.98452 -10.47757,-11.25411 z m 71.98011,-55.52559 c -4.84962,-5.13971 -17.6698,-28.09654 -28.48924,-51.01525 C 596.68129,143.78843 560.66408,106.11304 477.48988,66.548146 399.4489,29.425033 315.735,18.879312 257.16271,38.792826 c -14.19528,4.82612 -14.22138,4.820487 -6.77346,-1.460522 9.35516,-7.889437 41.56062,-18.537192 71.22367,-23.548022 33.563,-5.6695816 109.42728,-2.179792 142.25627,6.543891 54.69425,14.533965 97.54584,40.33293 147.95105,89.074477 58.08264,56.16559 96.69521,115.70793 99.99484,154.19659 1.98472,23.15051 -2.44372,30.1789 -20.50926,32.55024 -11.26044,1.47808 -14.29985,0.41906 -21.89319,-7.6285 z"
     id="path12" />
</svg>
