<?xml version="1.0" encoding="UTF-8" standalone="no"?>
<svg
   xmlns:dc="http://purl.org/dc/elements/1.1/"
   xmlns:cc="http://creativecommons.org/ns#"
   xmlns:rdf="http://www.w3.org/1999/02/22-rdf-syntax-ns#"
   xmlns:svg="http://www.w3.org/2000/svg"
   xmlns="http://www.w3.org/2000/svg"
   viewBox="0 0 1560 1830"
   height="1830"
   width="1560"
   id="svg2"
   version="1.1">
  <metadata
     id="metadata8">
    <rdf:RDF>
      <cc:Work
         rdf:about="">
        <dc:format>image/svg+xml</dc:format>
        <dc:type
           rdf:resource="http://purl.org/dc/dcmitype/StillImage" />
        <dc:title></dc:title>
      </cc:Work>
    </rdf:RDF>
  </metadata>
  <defs
     id="defs6" />
  <path
     id="path12"
     d="m 404.43574,1809.4591 c -33.11197,-11.8468 -59.47354,-31.3802 -63.41185,-46.9866 -3.56593,-14.1307 59.22001,-231.7854 72.09519,-249.9266 4.6739,-6.5853 28.39507,-23.3912 52.71377,-37.3461 l 44.2158,-25.3726 6.49019,-31.6449 c 3.56962,-17.4048 8.23374,-33.2886 10.36479,-35.2976 2.13104,-2.0091 20.09039,5.8624 39.90961,17.4922 19.81934,11.6299 48.40607,25.0151 63.52609,29.7452 15.12003,4.73 27.49092,10.8108 27.49092,13.5128 0,2.7019 -10.64991,18.3983 -23.66654,34.8806 l -23.66654,29.9678 v 47.6614 c 0,45.0644 -0.92286,49.2819 -16.93406,77.3941 -27.68111,48.6024 -95.07777,147.2668 -114.24343,167.2455 -20.82297,21.7061 -34.14695,23.2499 -74.88394,8.6748 z m 392.90273,-311.4922 c 0,-7.024 43.01773,-43.9283 74.73653,-64.1152 15.07183,-9.5923 40.85594,-28.6741 57.298,-42.4041 47.61702,-39.7629 52.48458,-41.6628 14.94727,-5.8343 -28.89556,27.5804 -66.67502,57.8365 -138.21751,110.6937 -4.82041,3.5612 -8.76429,4.3083 -8.76429,1.6599 z m -2.49124,-58.4736 c -46.90945,-3.7564 -97.4104,-13.6457 -135.54873,-26.5436 -49.87307,-16.8668 -171.34304,-78.7355 -229.91787,-117.1049 -69.73796,-45.6819 -180.32003,-162.251 -192.85367,-203.2952 -1.57721,-5.1648 2.17521,-2.6687 8.72494,5.8039 22.23079,28.7571 56.97269,58.6438 121.655,104.6536 177.64586,126.3627 306.01369,192.2968 455.34372,233.8802 18.66871,5.1986 12.40888,5.794 -27.40339,2.606 z M 765.21364,1335.8867 C 684.81113,1295.3395 430.65381,1160.4546 309.30306,1093.9287 238.56683,1055.1504 197.45189,1001.7291 172.54058,916.2316 159.65371,872.00278 149.15431,792.48902 150.22505,747.23246 c 0.4653,-19.66687 2.26029,-13.03669 7.85634,29.01868 8.54698,64.23247 25.40776,117.73361 49.57144,157.29567 20.03911,32.80897 87.24369,100.53719 123.82796,124.79279 88.50509,58.6791 562.44777,308.6206 576.42453,303.9869 3.14671,-1.0432 -18.76189,-17.2502 -48.6859,-36.0152 -29.92401,-18.7653 -55.39035,-34.8546 -56.59179,-35.7543 -1.96242,-1.4693 -9.16829,-88.8287 -9.95646,-120.7068 l -0.31503,-12.7455 -37.09346,18.5409 c -20.40142,10.1975 -54.02014,22.2863 -74.7083,26.864 -61.31632,13.5677 -75.42088,7.5777 -276.82812,-117.5667 -28.77358,-17.8785 -68.61914,-41.8135 -88.54569,-53.1888 -67.52521,-38.54779 -102.67905,-99.77597 -126.16961,-219.7519 -5.22187,-26.67007 -9.57833,-59.00422 -9.68104,-71.85356 l -0.18686,-23.36257 -65.44782,-31.11393 C 66.641345,663.30268 47.201467,656.24141 44.525744,660.5473 38.222388,670.69107 32.75821,757.61488 33.514359,835.71617 34.6375,951.72494 55.498882,1061.2465 97.149257,1169.7973 c 23.138983,60.3057 22.495773,68.1333 -3.291284,40.0531 C 57.84154,1170.6312 29.655788,1095.1875 14.911991,998.53909 9.0125159,959.86667 10.083712,623.47099 16.125453,617.47334 c 1.936202,-1.92204 13.607801,5.33649 25.936856,16.13017 38.11431,33.3676 84.792471,54.98637 239.594271,110.96684 85.57303,30.94545 94.43278,36.48699 27.30034,17.07551 -23.06811,-6.67019 -42.60963,-11.46366 -43.42569,-10.65202 -0.81601,0.81165 0.70668,16.85863 3.38377,35.66002 3.20108,22.48083 11.64284,47.75893 24.65723,73.83353 57.67794,115.55922 220.36657,220.64191 323.01933,208.64251 35.04613,-4.0966 73.43398,-19.0061 96.59188,-37.5154 10.33957,-8.264 21.73325,-15.0068 25.31932,-14.9838 3.58614,0.025 25.57806,13.6361 48.87095,30.2517 23.29284,16.6155 58.29196,38.9264 77.77579,49.5797 l 35.42507,19.3696 v 53.3983 c 0,70.4353 10.00631,95.6631 43.8488,110.5521 l 22.91249,10.0804 18.38689,-13.759 c 10.1128,-7.5676 32.47285,-27.1083 49.68905,-43.4239 l 31.3021,-29.665 10.9393,10.8801 c 10.0449,9.9904 10.3372,11.865 3.5749,22.9297 -4.0504,6.6274 -24.1387,30.5861 -44.6407,53.2418 l -37.27635,41.1921 47.24105,-41.4971 47.2412,-41.4971 -54.8068,52.4474 c -49.40621,47.2794 -69.18347,63.0085 -59.37206,47.2195 1.92303,-3.0948 -2.98934,-0.9272 -10.91646,4.8168 -17.06458,12.3649 -72.84782,30.3877 -94.33547,30.4784 -9.36809,0.04 -51.02871,-18.0293 -109.14893,-47.3395 z m 347.60596,-116.6259 c -21.379,-6.153 -48.8792,-39.2966 -56.2923,-67.844 -3.3321,-12.832 -6.8459,-26.004 -7.8084,-29.2712 -1.2241,-4.1554 -14.0357,-1.4811 -42.6307,8.8982 -29.30702,10.6378 -45.20283,13.8944 -56.14819,11.5035 -10.48565,-2.2906 -30.92301,-19.3276 -65.2505,-54.3944 -56.80226,-58.0254 -91.30187,-87.6492 -97.58092,-83.7896 -5.29215,3.253 -150.07327,-26.29601 -155.55486,-31.74792 -6.77812,-6.7413 1.44962,-19.27961 16.8017,-25.60414 17.98776,-7.41038 52.09873,-3.42971 81.51693,9.51284 25.39829,11.17384 120.67664,79.18232 169.60602,121.06232 56.73712,48.563 89.87881,57.3147 133.02052,35.1261 8.1881,-4.2111 15.4826,-6.9348 16.2103,-6.0525 0.7275,0.8823 6.1134,17.5238 11.9684,36.9808 12.0828,40.1531 31.5473,64.6588 55.0745,69.3387 8.4751,1.6858 15.4095,5.0163 15.4095,7.4012 0,2.3848 -0.5605,4.1348 -1.2456,3.8891 -0.6851,-0.2456 -8.3785,-2.4998 -17.0964,-5.009 z m -53.5149,-197.7163 c 5.2072,-73.14928 27.8281,-300.2371 32.1821,-323.07091 5.7736,-30.27897 18.6909,-48.93423 47.5637,-68.69158 23.6115,-16.15703 71.0778,-34.40372 89.4967,-34.40372 6.1181,0 16.417,4.38572 22.8865,9.74594 l 11.7624,9.74601 -25.6518,0.16481 c -18.4986,0.11887 -33.3901,4.21341 -53.4016,14.68297 -29.9661,15.67765 -73.2432,46.86442 -78.8987,56.85667 -5.4903,9.70078 -22.4914,135.38144 -31.5703,233.3836 -8.585,92.67141 -18.9518,165.96181 -14.369,101.58621 z M 545.64547,907.09842 c -3.12815,-18.41491 -1.9387,-21.84104 12.85104,-37.01744 8.96404,-9.19839 26.00447,-20.69352 37.86757,-25.54458 11.86317,-4.85112 21.57778,-10.1721 21.58807,-11.82434 0.009,-1.65223 -18.13154,-4.50954 -40.31515,-6.34952 -38.00401,-3.15225 -176.65569,-35.37705 -203.80553,-47.36758 l -12.45607,-5.50116 12.45607,2.69883 c 69.35893,15.0274 190.76178,37.9824 226.70082,42.86496 24.66303,3.35056 47.80465,9.02692 51.42586,12.61414 5.45696,5.40575 5.45696,6.52286 0,6.52603 -3.62121,0.002 -20.13296,6.37896 -36.69279,14.17072 -35.17384,16.55001 -57.08378,39.78532 -57.08378,60.53695 0,21.50759 -8.5706,17.53748 -12.53611,-5.80701 z m 727.51543,-63.08468 c -23.7613,-11.15115 -92.2442,-60.91948 -136.1154,-98.91881 -28.9261,-25.05441 -30.8326,-27.9165 -23.462,-35.22272 13.4404,-13.32306 76.7888,-9.82251 122.2093,6.7531 44.19,16.12667 106.0823,47.33355 126.9601,64.01505 13.1053,10.4712 14.2792,13.47816 9.9648,25.52503 -2.6898,7.51057 -13.0337,20.19632 -22.9864,28.19058 -23.313,18.72541 -50.06,22.09889 -76.5704,9.65777 z m 247.5176,-237.58605 c -44.3738,-20.1292 -104.5675,-28.22542 -160.3249,-21.56407 -58.643,7.006 -85.0101,7.0813 -102.9597,0.29396 -17.389,-6.57536 -21.4285,-12.79455 -21.5249,-33.1391 -0.1003,-21.11459 12.9816,-33.51317 45.4901,-43.11481 76.6528,-22.64004 152.1852,-23.18858 189.6067,-1.37699 38.0933,22.20312 81.7858,79.64754 77.7711,102.24888 -1.4124,7.95131 -3.7704,7.67001 -28.0584,-3.34775 z M 684.72943,501.61834 C 554.28953,444.49424 486.3971,404.0321 413.69096,340.0864 342.35094,277.34216 273.36082,248.49888 194.62313,248.49888 c -42.24425,0 -91.47245,12.76206 -135.604518,35.15448 -12.969088,6.58052 -19.343041,7.95952 -17.979099,3.88993 3.615541,-10.78779 54.994066,-43.00541 82.140597,-51.50739 25.22437,-7.90008 85.62948,-10.55563 114.54279,-5.03567 8.98776,1.7159 4.17922,-2.1564 -13.3644,-10.76242 -32.55707,-15.97076 -83.28345,-20.79546 -117.74538,-11.19907 -12.414715,3.45711 -36.403187,14.92267 -53.307726,25.47909 L 22.56984,253.71135 42.343292,236.01598 C 103.69578,181.11142 186.29806,169.13155 245.01211,206.62281 l 18.16251,11.59742 -16.83753,-24.88469 c -9.26061,-13.68661 -20.23631,-36.2679 -24.39051,-50.1806 -7.83337,-26.23477 -10.36123,-85.606358 -3.81616,-89.629499 2.05525,-1.263336 3.73684,11.427209 3.73684,28.201212 0,40.903937 17.77682,76.229347 62.13277,123.467717 51.27446,54.60657 63.57033,61.41406 117.23487,64.90647 112.61262,7.32865 212.11906,52.50613 286.79567,130.20965 34.70428,36.11106 56.27905,65.2458 73.9374,99.84588 20.11049,39.40457 9.84514,39.59888 -77.23854,1.46197 z m 212.2577,10.49583 c 0,-33.57152 -10.04568,-94.66727 -25.01207,-152.11835 C 845.72744,259.24008 812.92804,196.64075 769.01396,163.48966 734.14028,137.16325 661.50925,102.42329 594.35287,79.947968 555.55161,66.962323 541.01439,60.314194 551.31468,60.265878 c 29.2359,-0.137136 113.22687,24.557615 159.23467,46.817762 144.96006,70.13654 221.00596,193.80481 221.91623,360.88698 0.16154,29.61103 -0.63204,54.75864 -1.76293,55.88345 -1.13098,1.1248 -9.17959,3.46201 -17.88592,5.19383 -15.70127,3.12326 -15.8296,2.98605 -15.8296,-16.93373 z M 1005.7353,428.56643 C 998.40839,420.83285 979.0396,386.29039 962.6935,351.80527 895.85216,210.79157 841.43707,154.10251 715.7768,94.570358 597.87183,38.71229 471.39617,22.844449 382.90467,52.807735 c -21.44634,7.261723 -21.48578,7.253246 -10.2334,-2.197605 14.13386,-11.871007 62.79013,-27.892373 107.60531,-35.432024 50.70727,-8.5308548 165.32365,-3.279869 214.92196,9.846402 82.63253,21.868835 147.37306,60.687788 223.52568,134.027782 87.75178,84.51072 146.08798,174.10235 151.07308,232.01512 2.9985,34.8339 -3.692,45.40932 -30.9856,48.9774 -17.0124,2.22402 -21.6044,0.63055 -33.0764,-11.47838 z"
     style="opacity:0.15;fill:#a8a8a8;fill-opacity:0.5;stroke:#ffffff;stroke-width:2.00001;stroke-miterlimit:4;stroke-dasharray:none;stroke-opacity:1" />
</svg>
