<?xml version="1.0" encoding="UTF-8" standalone="no"?>
<svg
   xmlns:dc="http://purl.org/dc/elements/1.1/"
   xmlns:cc="http://creativecommons.org/ns#"
   xmlns:rdf="http://www.w3.org/1999/02/22-rdf-syntax-ns#"
   xmlns:svg="http://www.w3.org/2000/svg"
   xmlns="http://www.w3.org/2000/svg"
   viewBox="0 0 520 610"
   height="610"
   width="520"
   id="svg2"
   version="1.1">
  <metadata
     id="metadata8">
    <rdf:RDF>
      <cc:Work
         rdf:about="">
        <dc:format>image/svg+xml</dc:format>
        <dc:type
           rdf:resource="http://purl.org/dc/dcmitype/StillImage" />
        <dc:title></dc:title>
      </cc:Work>
    </rdf:RDF>
  </metadata>
  <defs
     id="defs6" />
  <path
     id="path12"
     d="m 138.39241,595.89597 c -10.72148,-3.85274 -19.25722,-10.20519 -20.53242,-15.28059 -1.15463,-4.59547 19.17512,-75.37945 23.34404,-81.27916 1.51338,-2.14167 9.19417,-7.60711 17.06844,-12.14544 l 14.31684,-8.2515 2.10149,-10.29129 c 1.15582,-5.66023 2.66604,-10.82588 3.35606,-11.47923 0.69002,-0.65336 6.50516,1.90656 12.92252,5.68871 6.4174,3.78216 15.67363,8.13521 20.56941,9.67348 4.89579,1.53826 8.90142,3.51582 8.90142,4.39453 0,0.87872 -3.44839,5.98334 -7.6631,11.3436 l -7.6631,9.74592 v 15.5001 c 0,14.65538 -0.29882,16.02704 -5.48316,25.16947 -8.963,15.80608 -30.78568,47.89298 -36.99142,54.39026 -6.74237,7.05911 -11.0566,7.56109 -24.24702,2.82114 z M 265.61223,494.59492 c 0,-2.2843 13.92891,-14.28599 24.19929,-20.85104 4.88018,-3.11951 13.22894,-9.32516 18.55279,-13.79034 15.41814,-12.93138 16.99423,-13.54925 4.83985,-1.89737 -9.35623,8.96944 -21.58902,18.80914 -44.7541,35.99891 -1.56082,1.1582 -2.83783,1.40114 -2.83783,0.53984 z m -0.80665,-19.01636 c -15.18903,-1.2216 -31.54097,-4.43772 -43.88996,-8.63231 -16.14864,-5.48523 -55.47997,-25.6057 -74.44619,-38.08393 -22.58078,-14.85631 -58.386666,-52.76601 -62.444996,-66.11402 -0.51069,-1.67968 0.70432,-0.86794 2.82509,1.88745 7.19821,9.35217 18.447456,19.07168 39.391246,34.03462 57.52079,41.09468 99.08561,62.5373 147.43788,76.06073 6.04483,1.69066 4.01793,1.88424 -8.87307,0.84746 z m -9.5952,-33.69409 C 229.17647,428.698 146.88168,384.83183 107.58895,363.1968 84.684934,350.58557 71.372134,333.21234 63.305984,305.4075 c -4.1727,-14.38375 -7.57235,-40.24259 -7.22565,-54.96058 0.15066,-6.39591 0.73187,-4.23969 2.54384,9.43723 2.76747,20.88918 8.2269,38.28841 16.05097,51.15447 6.48856,10.66988 28.249046,32.69593 40.094836,40.58411 28.65748,19.08318 182.11761,100.36721 186.64321,98.86028 1.01889,-0.33929 -6.075,-5.60996 -15.76424,-11.71262 -9.68923,-6.10267 -17.9351,-11.33512 -18.32412,-11.62768 -0.63542,-0.47788 -2.96864,-28.8882 -3.22385,-39.25535 l -0.102,-4.14501 -12.01067,6.02976 c -6.60587,3.31635 -17.49143,7.24777 -24.19015,8.7365 -19.8539,4.41236 -24.42088,2.46433 -89.63548,-38.23414 -9.31673,-5.81429 -22.21851,-13.59824 -28.67062,-17.29764 -21.864306,-12.53622 -33.246936,-32.44836 -40.853056,-71.466 -1.69081,-8.67343 -3.10141,-19.18889 -3.13467,-23.36766 l -0.0605,-7.59779 -21.19166,-10.11863 c -15.2358,-7.27482 -21.530329,-9.57123 -22.396714,-8.1709 -2.040993,3.29887 -3.810265,31.56756 -3.565428,56.96705 0.363667,37.72747 7.118472,73.34522 20.604642,108.64726 7.49228,19.61216 7.28401,22.15778 -1.0657,13.02576 -11.66193,-12.75457 -20.788327,-37.28976 -25.56229,-68.72104 -1.910219,-12.57672 -1.563371,-121.9767 0.392912,-123.92721 0.626932,-0.62507 4.406134,1.73549 8.398217,5.24573 12.341211,10.85155 27.455351,17.88224 77.579351,36.08777 27.708096,10.06384 30.576836,11.86601 8.839706,5.55316 -7.46933,-2.16923 -13.796766,-3.72812 -14.061006,-3.46416 -0.26422,0.26395 0.22882,5.48263 1.09565,11.59707 1.03649,7.31104 3.76989,15.53179 7.983876,24.01157 18.67581,37.58126 71.35353,71.75545 104.59195,67.85309 11.34775,-1.33228 23.77753,-6.18103 31.27594,-12.20046 3.34789,-2.68758 7.03711,-4.88038 8.19826,-4.87291 1.16117,0.008 8.28204,4.43463 15.82415,9.83822 7.5421,5.40358 18.87463,12.65933 25.18339,16.1239 l 11.47045,6.29925 v 17.36577 c 0,22.9064 3.23999,31.11082 14.19801,35.95291 l 7.41894,3.27823 5.95358,-4.4746 c 3.27446,-2.46102 10.51454,-8.8159 16.08904,-14.12196 l 10.13548,-9.64739 3.54206,3.53831 c 3.2525,3.249 3.34714,3.85865 1.15754,7.45701 -1.3115,2.1553 -7.81598,9.94701 -14.4544,17.31489 l -12.06989,13.39616 15.29641,-13.49535 15.29643,-13.49535 -17.74616,17.05654 c -15.99747,15.37582 -22.40123,20.4911 -19.22435,15.35631 0.62267,-1.00644 -0.96793,-0.30153 -3.53469,1.5665 -5.52542,4.02126 -23.58774,9.88248 -30.54533,9.91197 -3.03333,0.013 -16.52282,-5.86335 -35.34184,-15.39538 z m 112.55297,-37.92815 c -6.9224,-2.00107 -15.82684,-12.77977 -18.22714,-22.06372 -1.07892,-4.17312 -2.21667,-8.45684 -2.52834,-9.51937 -0.39637,-1.35133 -4.54469,-0.48166 -13.80357,2.89381 -9.48947,3.45954 -14.63645,4.51864 -18.1805,3.74109 -3.3952,-0.74492 -10.01271,-6.28559 -21.12777,-17.68971 -18.39227,-18.87057 -29.56306,-28.5046 -31.59618,-27.24941 -1.71357,1.05793 -48.59293,-8.55179 -50.36784,-10.32481 -2.19472,-2.19236 0.46938,-6.26997 5.4403,-8.32678 5.82434,-2.40995 16.86929,-1.11538 26.39475,3.09369 8.22383,3.63387 39.07445,25.75107 54.91753,39.37097 18.37118,15.79328 29.10229,18.6394 43.07134,11.42343 2.65125,-1.36953 5.01321,-2.25531 5.24881,-1.96836 0.23558,0.28695 1.97948,5.69893 3.87531,12.0266 3.91234,13.05827 10.21483,21.02782 17.83281,22.54979 2.74423,0.54825 4.98952,1.63139 4.98952,2.40695 0,0.77556 -0.18149,1.34472 -0.40332,1.26479 -0.22183,-0.0799 -2.71289,-0.81299 -5.53571,-1.62896 z m -17.32785,-64.2998 c 1.68606,-23.78902 9.01061,-97.64075 10.4204,-105.06658 1.86946,-9.84709 6.05203,-15.91401 15.40087,-22.33934 7.64529,-5.25446 23.0146,-11.18851 28.97854,-11.18851 1.98104,0 5.31577,1.42629 7.41054,3.1695 l 3.8086,3.16952 -8.30591,0.0536 c -5.98974,0.0387 -10.81155,1.37025 -17.29115,4.77508 -9.70288,5.09856 -23.71578,15.24088 -25.54697,18.49048 -1.77774,3.15481 -7.28263,44.0277 -10.22231,75.8992 -2.77978,30.13789 -6.13648,53.97279 -4.65261,33.03704 z M 184.11537,302.43728 c -1.01288,-5.98875 -0.62774,-7.10297 4.1611,-12.03852 2.90251,-2.99143 8.42011,-6.72979 12.26132,-8.30741 3.84123,-1.57765 6.98677,-3.30809 6.9901,-3.84542 0.003,-0.53733 -5.8709,-1.46656 -13.05383,-2.06494 -12.3055,-1.02515 -57.20018,-11.50505 -65.99115,-15.40452 l -4.03321,-1.78904 4.03321,0.87769 c 22.45805,4.88709 61.76765,12.35234 73.40452,13.94021 7.98576,1.08964 15.47889,2.93566 16.65142,4.10227 1.76694,1.75801 1.76694,2.12131 0,2.12235 -1.17253,7e-4 -6.51894,2.07451 -11.88093,4.60849 -11.3891,5.38226 -18.48342,12.93867 -18.48342,19.68735 0,6.99453 -2.77512,5.70341 -4.05913,-1.88851 z m 235.56566,-20.51591 c -7.69379,-3.62649 -29.8682,-19.81176 -44.07349,-32.1696 -9.36609,-8.148 -9.9834,-9.07879 -7.59685,-11.45486 4.35194,-4.33282 24.86381,-3.1944 39.5707,2.19619 14.30853,5.24459 34.34891,15.39345 41.10902,20.81847 4.24344,3.40537 4.62354,4.38327 3.22655,8.30106 -0.87093,2.44253 -4.22022,6.56809 -7.44286,9.16792 -7.54865,6.08973 -16.20917,7.18683 -24.79307,3.14082 z m 80.14487,-77.26588 c -14.36799,-6.54626 -33.85839,-9.17925 -51.91238,-7.0129 -18.9883,2.27844 -27.52579,2.30293 -33.33781,0.0956 -5.63045,-2.13839 -6.93841,-4.16094 -6.96963,-10.77724 -0.0325,-6.86672 4.2034,-10.89889 14.72948,-14.02146 24.81975,-7.36282 49.27673,-7.54121 61.39362,-0.44781 12.33441,7.22072 26.48183,25.90235 25.18186,33.25258 -0.45733,2.58586 -1.22083,2.49438 -9.08514,-1.08873 z M 229.15002,170.57021 C 186.91427,151.99276 164.93106,138.83397 141.3892,118.03805 118.28968,97.63286 95.951044,88.25267 70.456194,88.25267 c -13.67846,0 -29.61829,4.15038 -43.90802,11.43267 -4.199322,2.14006 -6.263174,2.58853 -5.821537,1.26505 1.170693,-3.50832 17.806787,-13.98588 26.596687,-16.75083 8.16752,-2.5692 27.72637,-3.43282 37.08835,-1.63766 2.91019,0.55803 1.35321,-0.70129 -4.32732,-3.50007 -10.54181,-5.19389 -26.96674,-6.76294 -38.12533,-3.64207 -4.01982,1.12429 -11.78716,4.85303 -17.26076,8.28611 l -9.952009,6.24196 6.402539,-5.75475 c 19.86561,-17.85563 46.61179,-21.75163 65.62309,-9.55902 l 5.88092,3.77163 -5.4519,-8.09281 c -2.99854,-4.45105 -6.55241,-11.79476 -7.89752,-16.31934 -2.5364,-8.53187 -3.35491,-27.840233 -1.23565,-29.148608 0.66548,-0.410852 1.20997,3.716268 1.20997,9.171378 0,13.30246 5.75604,24.79071 20.11826,40.15321 16.602396,17.75872 20.583736,19.9726 37.960026,21.10837 36.46337,2.38337 68.68303,17.07564 92.86292,42.34577 11.23706,11.74376 18.22286,21.21873 23.94054,32.4711 6.51167,12.81485 3.1878,12.87804 -25.00943,0.47545 z m 68.72792,3.41337 c 0,-10.91787 -3.25274,-30.78695 -8.09878,-49.47074 -8.49884,-32.767 -19.11911,-53.12506 -33.33826,-63.9062 -11.29191,-8.56167 -34.80945,-19.85953 -56.55433,-27.16878 -12.56364,-4.22309 -17.27072,-6.385143 -13.93554,-6.400856 9.46643,-0.0446 36.66226,7.986436 51.55934,15.225706 46.9373,22.80926 71.56056,63.02769 71.8553,117.36485 0.0523,9.62987 -0.20465,17.80818 -0.57083,18.17398 -0.3662,0.3658 -2.9723,1.12589 -5.79136,1.6891 -5.08399,1.01572 -5.12554,0.9711 -5.12554,-5.50706 z m 35.21207,-27.17074 c -2.37239,-2.51505 -8.64392,-13.74869 -13.9367,-24.96367 C 297.51044,75.9898 279.89112,57.55382 239.20299,38.19324 201.02599,20.027514 160.07384,14.867099 131.42076,24.611525 c -6.94421,2.361601 -6.95698,2.358845 -3.31352,-0.714688 4.57647,-3.860596 20.33111,-9.07094 34.84203,-11.522926 16.41874,-2.7743383 53.53092,-1.066654 69.59059,3.20217 26.75598,7.112012 47.71862,19.736409 72.37643,43.587469 28.41355,27.48392 47.3025,56.62021 48.91665,75.45415 0.97091,11.32841 -1.19545,14.76766 -10.03296,15.92805 -5.50852,0.72328 -6.99537,0.20506 -10.70997,-3.73291 z"
     style="opacity:0.15;fill:#a9a9a9;fill-opacity:1;stroke:#ffffff;stroke-width:2;stroke-miterlimit:4;stroke-dasharray:none;stroke-opacity:1" />
</svg>
